PathFileType	4	(X/Y/Z)	D:\Share\Shared_Data\Ergonomics\Sit To Stand Pertubation\S2\Perturbed.trc
DataRate	CameraRate	NumFrames	NumMarkers	Units	OrigDataRate	OrigDataStartFrame	OrigNumFrames	
100	100	19	18	m	100	13441	241
Frame#	Time	R_Toe			R_ASIS			R_Pelvis			V_Sacral			L_Pelvis			L_ASIS			Clavical			R_Acromium			L_Acromium			Sternum			Torso			R_Thigh_Med			R_Thigh_Lat			R_Thigh			R_Shank_Med			R_Shank_Lat			R_Shank			R_Heel			
		X1	Y1	Z1	X2	Y2	Z2	X3	Y3	Z3	X4	Y4	Z4	X5	Y5	Z5	X6	Y6	Z6	X7	Y7	Z7	X8	Y8	Z8	X9	Y9	Z9	X10	Y10	Z10	X11	Y11	Z11	X12	Y12	Z12	X13	Y13	Z13	X14	Y14	Z14	X15	Y15	Z15	X16	Y16	Z16	X17	Y17	Z17	X18	Y18	Z18	

13441	134.4	0.42822391	0.066359306	0.14419325	-0.050634342	0.62604834	0.13382982	-0.12937601	0.64312244	0.17143219	-0.27512296	0.61345331	0.021108727	-0.16248177	0.65873389	-0.16078119	-0.062189213	0.65308533	-0.13404974	0.19782761	0.89686847	0.0040613065	0.13802982	0.97537579	0.21029903	0.1324426	0.9837392	-0.17913672	0.13990494	0.74869452	0.009024744	0.18630951	0.86329718	-0.10393365	0.30619397	0.51021738	0.14126364	0.27232889	0.51190768	0.24346326	0.1162555	0.62258234	0.1912505	0.29098865	0.11259546	0.10975565	0.26948676	0.1002628	0.20056583	0.28124365	0.36016974	0.25104054	0.19052902	0.061353539	0.14828558
13442	134.41	0.4280239	0.066654816	0.14434018	-0.047367561	0.62525031	0.13443848	-0.12586084	0.64368939	0.17177502	-0.27151508	0.61658252	0.021093319	-0.15751932	0.66042554	-0.1601608	-0.057551617	0.65303918	-0.13325883	0.20724783	0.89189935	0.0035383301	0.14893657	0.97235931	0.2096407	0.14344481	0.97985101	-0.17978636	0.14752478	0.74473236	0.0089743166	0.19571791	0.85880212	-0.10411631	0.30739795	0.51005804	0.14299506	0.27324844	0.5115007	0.24511292	0.11725936	0.62251465	0.19271323	0.29079224	0.11260865	0.11003819	0.26917215	0.10006975	0.20073203	0.28148044	0.35963968	0.2520825	0.19041197	0.061108543	0.14827841
13443	134.42	0.42778802	0.067028305	0.14455656	-0.04388488	0.62454199	0.13505319	-0.12212423	0.64435767	0.17211632	-0.26756638	0.61987469	0.021028179	-0.15221182	0.66223102	-0.15956709	-0.052597321	0.65308423	-0.1324557	0.21678273	0.88706305	0.0029915552	0.15989893	0.96948724	0.20889957	0.15449236	0.97596106	-0.18050279	0.15542967	0.7408515	0.0088721075	0.20523961	0.85440564	-0.10434867	0.30879794	0.50988806	0.14484354	0.27430167	0.51108627	0.24687251	0.11845155	0.62247961	0.19417552	0.29059116	0.11264204	0.11036895	0.26879681	0.099859909	0.20096806	0.28172397	0.35907294	0.25317126	0.19027159	0.060819199	0.14827257
13444	134.43	0.42752826	0.067473076	0.14486157	-0.040180134	0.62395294	0.13566011	-0.11816578	0.64514856	0.17243941	-0.26326572	0.62332428	0.020921034	-0.14656766	0.66414923	-0.15901601	-0.047336014	0.65323193	-0.13165466	0.22642828	0.88236017	0.0024269269	0.17089757	0.96675952	0.20809645	0.16556396	0.97209656	-0.18126047	0.16357961	0.73704865	0.0087241726	0.21483368	0.85011902	-0.10461859	0.31042087	0.5097204	0.14678938	0.27551373	0.51068115	0.24871684	0.11986352	0.62250891	0.19561401	0.290405	0.11270625	0.11075163	0.26837259	0.099637901	0.20127466	0.28201996	0.35848602	0.25429491	0.19011501	0.060498238	0.14827078
13445	134.44	0.42726071	0.067973488	0.14525748	-0.036245667	0.62351038	0.13624037	-0.1139817	0.64608484	0.17272464	-0.25860532	0.62692255	0.020774097	-0.14060329	0.66616559	-0.15852536	-0.041781906	0.6534801	-0.13087657	0.23616388	0.87779016	0.0018569542	0.18191223	0.96416913	0.20725723	0.17663768	0.96829095	-0.18203026	0.1719064	0.73332849	0.0085401249	0.2244393	0.84595282	-0.10491086	0.3122977	0.50956433	0.14880469	0.27691135	0.51029773	0.25061139	0.12153441	0.6226394	0.19700983	0.29025159	0.11280428	0.11118268	0.26792297	0.099407013	0.20164522	0.28242743	0.35789337	0.25543842	0.18995372	0.060163406	0.14827129
13446	134.45	0.42700385	0.068505432	0.14572296	-0.032076267	0.6232384	0.13677133	-0.1095672	0.64718799	0.17295296	-0.25358412	0.63065466	0.020577528	-0.13434531	0.66825275	-0.15811349	-0.03595483	0.65381531	-0.13014751	0.2459574	0.87336115	0.0012989557	0.19291843	0.96170831	0.20640862	0.18768796	0.96458441	-0.18278345	0.18032063	0.72971027	0.0083329649	0.23398294	0.84192352	-0.10520587	0.31445895	0.50942099	0.1508526	0.27852127	0.50994022	0.2525161	0.12350813	0.6229093	0.19834457	0.29014639	0.11292923	0.11164755	0.26748056	0.099168686	0.20206268	0.28301245	0.35730417	0.25658301	0.18980269	0.059834484	0.14826793
13447	134.46	0.42677805	0.069038551	0.14621968	-0.027672777	0.62315454	0.13723007	-0.10492058	0.64847394	0.17310944	-0.24821352	0.63449878	0.020316591	-0.12783289	0.67037445	-0.15779736	-0.029884237	0.65421564	-0.12949458	0.25577113	0.86909943	0.00077412593	0.20388399	0.95937476	0.20557463	0.19868307	0.96102423	-0.18349504	0.18872133	0.72623077	0.0081182594	0.2433857	0.8380592	-0.10548096	0.31692865	0.50928192	0.15288954	0.28036798	0.50960391	0.25438853	0.1258246	0.62334802	0.19959552	0.29010266	0.11306548	0.11212083	0.26708344	0.098922684	0.20249969	0.28383951	0.35672003	0.25770554	0.18967799	0.059530296	0.14825223
13448	134.47	0.42660263	0.069541756	0.14670235	-0.023044825	0.62326862	0.13759636	-0.10004745	0.6499491	0.17318512	-0.24252245	0.63842413	0.019980328	-0.12112011	0.67249225	-0.15759058	-0.023613413	0.65465747	-0.12894231	0.26556503	0.86505463	0.00030658486	0.21476668	0.95717981	0.20477547	0.20958237	0.95766443	-0.18414491	0.19700479	0.72294342	0.0079124532	0.25256976	0.83439935	-0.10571487	0.31971704	0.50913052	0.15486783	0.28247153	0.50927646	0.25618539	0.12851178	0.62396509	0.20073386	0.29013055	0.1131935	0.11257159	0.26676917	0.098666405	0.20292351	0.28496231	0.35613599	0.25877875	0.18959352	0.05926601	0.14821649
13449	134.48	0.42649133	0.069992012	0.14712561	-0.018212358	0.6235871	0.1378539	-0.094963173	0.65160925	0.1731786	-0.23656174	0.6423847	0.019562412	-0.11427785	0.6745722	-0.15750116	-0.017201361	0.65512781	-0.12851039	0.27529672	0.86129706	-7.824026e-05	0.22551385	0.95515289	0.20402744	0.22033513	0.95456445	-0.18471727	0.20507324	0.71991309	0.0077312207	0.26146811	0.83099243	-0.10589186	0.32281586	0.5089447	0.15673621	0.2848494	0.50894226	0.2578623	0.13158298	0.62474286	0.20172519	0.29023282	0.11329546	0.11297198	0.26656696	0.098394547	0.20330435	0.28641638	0.35554422	0.25977313	0.18955762	0.059050678	0.14815578
13450	134.49	0.42644809	0.070381905	0.14745537	-0.013205278	0.62411835	0.13799138	-0.089693031	0.6534386	0.17309712	-0.23040611	0.64631232	0.019059086	-0.10739269	0.67659003	-0.15752887	-0.010721372	0.65563477	-0.12821179	0.2849194	0.85790997	-0.00035619012	0.23606372	0.95334131	0.2033421	0.23088185	0.95178772	-0.18519899	0.21284247	0.71720831	0.007587996	0.27003687	0.82789087	-0.10600297	0.32620322	0.50870145	0.1584398	0.28751862	0.5085889	0.25937415	0.13504106	0.62563745	0.20253333	0.29039832	0.11335902	0.11330464	0.26648969	0.098100502	0.20362296	0.2882149	0.35494006	0.26065988	0.18957082	0.058885391	0.14806894
13451	134.5	0.42646561	0.070721016	0.14768045	-0.0080607624	0.62487451	0.13800307	-0.084270271	0.65541162	0.17295374	-0.22415193	0.65011578	0.018469437	-0.10056162	0.67853162	-0.15766255	-0.0042565498	0.65621021	-0.1280522	0.29437946	0.85497693	-0.00050809836	0.2463485	0.95180475	0.20272633	0.24115848	0.9493985	-0.18557816	0.22024747	0.71489471	0.0074916339	0.27826175	0.82514801	-0.10604455	0.32985217	0.50838138	0.15992276	0.2904975	0.50821161	0.2606767	0.13888512	0.62658984	0.20312601	0.29059918	0.11337877	0.11356627	0.26653003	0.097778687	0.20387479	0.2903465	0.35432764	0.26141345	0.1896255	0.058763378	0.14795869
13452	134.51	0.42652774	0.071029663	0.14781325	-0.0028192437	0.62586884	0.13788829	-0.078732819	0.65749451	0.1727616	-0.21790948	0.65369061	0.017799217	-0.093883659	0.68039203	-0.15787979	0.0021063895	0.65690234	-0.12803069	0.30361154	0.85256775	-0.00052489221	0.25629959	0.95060626	0.20218341	0.25110081	0.94745758	-0.18584389	0.22724602	0.71302679	0.0074439745	0.28614902	0.8228175	-0.10601563	0.33373441	0.50796985	0.1611337	0.29380405	0.50781351	0.26173047	0.14311288	0.62754553	0.20348174	0.29079828	0.11335727	0.11376663	0.2666644	0.097425255	0.20406935	0.29277771	0.35372095	0.26201352	0.18970799	0.058673012	0.1478317
13453	134.52	0.42661551	0.071328087	0.14787981	0.0024802139	0.62711176	0.13765259	-0.073119171	0.65965222	0.17253307	-0.21179008	0.65693658	0.017066736	-0.087450058	0.68217267	-0.15814978	0.0082847824	0.65776318	-0.12813936	0.31253934	0.85072186	-0.00041540688	0.26585223	0.94980475	0.20171353	0.26064825	0.94601776	-0.18598935	0.23382196	0.71164545	0.0074398017	0.29370526	0.82095142	-0.10591608	0.33781998	0.50745605	0.16203096	0.29745276	0.5074017	0.26250479	0.14771916	0.62847113	0.20359683	0.2909682	0.11330612	0.11392371	0.26686258	0.097039047	0.20422438	0.29546121	0.35314047	0.26244531	0.18980269	0.058602364	0.1476974
13454	134.53	0.42671313	0.071627724	0.14790767	0.0078043323	0.6286098	0.13731226	-0.067463921	0.66185809	0.17228557	-0.20588907	0.6597818	0.016308966	-0.081334282	0.68388147	-0.15843634	0.014208984	0.65883655	-0.12835997	0.32108325	0.84944543	-0.00020912525	0.27494876	0.94944885	0.20131317	0.26974652	0.94512085	-0.18601591	0.23998489	0.71077612	0.0074695845	0.30092584	0.81959729	-0.10574705	0.34207684	0.50683157	0.16258847	0.30144913	0.50698178	0.26298212	0.15269341	0.62935669	0.20349043	0.29111011	0.1132465	0.11405694	0.26709805	0.096624641	0.20435777	0.29834952	0.35260587	0.26269897	0.18989639	0.058542873	0.1475666
13455	134.54	0.42681061	0.071927887	0.14791624	0.013128345	0.63036462	0.13689952	-0.061795135	0.66410211	0.17204889	-0.20026942	0.66220544	0.015587442	-0.075582497	0.68553314	-0.15870113	0.019830629	0.66014667	-0.12865936	0.32917087	0.84873004	5.5826366e-05	0.28354071	0.94957465	0.20097449	0.2783497	0.94479675	-0.18593573	0.24576547	0.71043268	0.0075224972	0.30779816	0.81879565	-0.10551406	0.34647165	0.50609152	0.16279993	0.30578464	0.50655429	0.26315909	0.15801797	0.63020471	0.20320259	0.29125677	0.11320534	0.11418055	0.267353	0.096196159	0.20448253	0.30140643	0.35212759	0.26276947	0.18998055	0.058490665	0.14744943
13456	134.55	0.42690408	0.072216408	0.14791377	0.018436695	0.63237152	0.13646506	-0.056133553	0.66639667	0.17187009	-0.19495091	0.66425183	0.014987568	-0.070206322	0.68715125	-0.15890778	0.02512921	0.66169299	-0.12898727	0.33674457	0.84856976	0.00034394038	0.29159061	0.95020422	0.20068723	0.28642197	0.94506238	-0.18576971	0.25120753	0.71062085	0.0075871596	0.3143071	0.81857971	-0.10523062	0.35097052	0.50523651	0.16267735	0.31043329	0.50611389	0.26304462	0.16366551	0.63101532	0.20278529	0.29145078	0.11320409	0.11429958	0.26761874	0.095777939	0.20460591	0.30460846	0.35170343	0.26265942	0.19005173	0.058445553	0.14735323
13457	134.56	0.426995	0.072472458	0.1479008	0.02372187	0.63461743	0.13607004	-0.050491539	0.66877069	0.1718078	-0.18990865	0.66602655	0.014597485	-0.065180473	0.68876941	-0.15902666	0.030116837	0.66345355	-0.12928334	0.3437663	0.84895624	0.00061788791	0.29907431	0.95134491	0.20044209	0.29393784	0.94592413	-0.18554308	0.25635898	0.71134198	0.0076505785	0.32043994	0.81897577	-0.10491933	0.35554327	0.50427408	0.16224428	0.31535245	0.50565143	0.26265625	0.16959459	0.63177966	0.20229134	0.2917146	0.11324694	0.11440926	0.26789471	0.095398643	0.20472968	0.30793997	0.35132297	0.26238272	0.19011041	0.058409054	0.14728026
13458	134.57	0.42708905	0.07267234	0.14787447	0.028981312	0.63707086	0.13576472	-0.044873302	0.67125122	0.17190729	-0.1850826	0.66767584	0.01447472	-0.060447964	0.69043365	-0.15903804	0.034836136	0.66539557	-0.12949646	0.35022256	0.84986426	0.00082919109	0.30598303	0.95298914	0.20023334	0.3008822	0.94737878	-0.18528156	0.26126627	0.71259528	0.0076987224	0.32619028	0.82000195	-0.10460931	0.36017291	0.50322098	0.16152867	0.32048688	0.50515808	0.26201538	0.17574841	0.6324906	0.20176584	0.29204315	0.11332026	0.11449773	0.26818661	0.095081039	0.20484981	0.31138696	0.35097354	0.26195886	0.19015974	0.058382679	0.14722787
13459	134.58	0.42719275	0.072796661	0.14783041	0.034215408	0.63968555	0.13557355	-0.039276272	0.67385596	0.17218146	-0.18039496	0.66936261	0.014632172	-0.055933025	0.69220374	-0.15893324	0.039349068	0.6674895	-0.12959865	0.35612579	0.85125244	0.00092211533	0.31232349	0.95511755	0.20005873	0.30725037	0.94941602	-0.18500864	0.26597391	0.7143786	0.0077199974	0.33156158	0.82166693	-0.10433042	0.36485349	0.50210196	0.16055905	0.32577411	0.50462943	0.26114404	0.18206157	0.6331532	0.20123994	0.29241522	0.11340198	0.11455152	0.26850192	0.094837021	0.20495816	0.31493198	0.35064264	0.26140427	0.1902034	0.05836702	0.14719095
